
<svg 
	 xmlns="http://www.w3.org/2000/svg"  width="1024px" height="756px" >

<text transform="matrix(1 0 0 1 4 130.0239)" font-family="'Lato-Black'" font-size="72">border radius</text>
<text transform="matrix(1 0 0 1 0 61.4697)" font-family="'Lato-Light'" font-size="72">CSS</text>
<g>
	<g>
		<path fill="#9D9D9C" d="M358.638,632.565c-0.824,0-3.136-1.475-4.593-1.475C354.869,631.09,357.181,632.565,358.638,632.565
			L358.638,632.565z"/>
	</g>
</g>
<path fill="#DADADA" d="M799.924,593.361c0,8.329-6.753,15.083-15.083,15.083H247.717c-8.33,0-15.083-6.754-15.083-15.083V377.17
	c0-8.33,6.753-15.083,15.083-15.083h537.124c8.33,0,15.083,6.753,15.083,15.083V593.361z"/>
<text transform="matrix(1 0 0 1 293.8042 217.1226)" fill="#EB5B8C" font-family="'Lato-Black'" font-size="26.3953">border-radius: 5px 5px 5px 5px;</text>
<text transform="matrix(1 0 0 1 237.6626 347.8423)" fill="#9D9D9C" font-family="'Lato-Regular'" font-size="26.3953">top-left</text>
<text transform="matrix(1 0 0 1 688.4785 347.8423)" fill="#9D9D9C" font-family="'Lato-Regular'" font-size="26.3953">top-right</text>
<text transform="matrix(1 0 0 1 645.7422 641.1235)" fill="#9D9D9C" font-family="'Lato-Regular'" font-size="26.3953">bottom-right</text>
<text transform="matrix(1 0 0 1 232.6338 644.4761)" fill="#9D9D9C" font-family="'Lato-Regular'" font-size="26.3953">bottom-left</text>
<text transform="matrix(1 0 0 1 256.9307 412.9702)" fill="#FFFFFF" font-family="'Lato-Black'" font-size="46.4858">1</text>
<text transform="matrix(1 0 0 1 754.6709 412.9702)" fill="#FFFFFF" font-family="'Lato-Black'" font-size="46.4858">2</text>
<text transform="matrix(1 0 0 1 754.6709 589.7769)" fill="#FFFFFF" font-family="'Lato-Black'" font-size="46.4858">3</text>
<text transform="matrix(1 0 0 1 256.9302 589.7769)" fill="#FFFFFF" font-family="'Lato-Black'" font-size="46.4858">4</text>
<g opacity="0.5">
	<g>
		<path fill="#9D9D9C" d="M477.192,227.458c12.479-1.72,25.989-2.86,38.389,0.01c0,0-1.509-3.632-2.803-3.932
			c-12.489-2.892-26.116-1.724-38.701,0.01C474.177,223.533,475.863,227.641,477.192,227.458L477.192,227.458z"/>
	</g>
</g>
<g opacity="0.5">
	<g>
		<path fill="#9D9D9C" d="M495.952,229.568c-6.828,6.359-9.871,15.384-11.732,24.301c-0.207,0.993,4.515,2.407,4.615,1.923
			c1.861-8.917,4.904-17.942,11.732-24.301C500.66,231.405,496.883,228.702,495.952,229.568L495.952,229.568z"/>
	</g>
</g>
<g opacity="0.5">
	<g>
		<path fill="#9D9D9C" d="M479.69,287.91c5.622-4.23,9.78-9.6,12.67-16.01c-1.653-0.207-3.308-0.414-4.961-0.621
			c2.554,7.915,4.071,15.973,4.189,24.301c0.011,0.766,4.966,0.973,4.961,0.621c-0.117-8.328-1.636-16.386-4.189-24.301
			c-0.215-0.667-4.681-1.244-4.961-0.621c-2.854,6.33-6.897,11.642-12.469,15.833C475.011,287.051,478.708,288.648,479.69,287.91
			L479.69,287.91z"/>
	</g>
</g>
<g opacity="0.5">
	<g>
		<path fill="#9D9D9C" d="M532.699,223.813c15.296-3.986,31.555,0.842,46.925-3.352c1.114-0.304-2.351-3.446-3.52-3.325
			c-2.109,0.219-3.932,0.819-5.866,1.676c-1.093,0.484,2.354,3.841,3.52,3.325c1.934-0.857,3.757-1.457,5.866-1.676
			c-1.173-1.108-2.347-2.217-3.52-3.325c-15.367,4.193-31.628-0.634-46.925,3.352C528.211,220.74,531.371,224.159,532.699,223.813
			L532.699,223.813z"/>
	</g>
</g>
<g opacity="0.5">
	<g>
		<path fill="#9D9D9C" d="M544.362,227.079c0.087,7.021,1.544,13.941,1.677,20.948c0.025,1.349,5.02,1.425,4.996,0.198
			c-0.133-7.007-1.59-13.927-1.677-20.948C549.342,225.934,544.347,225.844,544.362,227.079L544.362,227.079z"/>
	</g>
</g>
<g opacity="0.5">
	<g>
		<path fill="#9D9D9C" d="M591.625,222.071c7.258-0.655,14.517-1.236,21.8-1.532c3.032-0.123,6.099,0.033,9.119-0.26
			c0.796-0.078,1.591-0.206,2.383-0.323c1.169-0.174,2.986,0.251,0.632-0.694c-0.363-0.901-0.728-1.801-1.092-2.702
			c-0.688,0.316-1.45,0.495-2.173,0.707c-2.211,0.65,1.752,3.521,3.316,3.061c0.722-0.212,1.483-0.391,2.173-0.707
			c1.556-0.715-0.126-2.313-1.093-2.702c-3.272-1.314-8.42,0.267-11.89,0.319c-8.537,0.127-17.06,0.871-25.559,1.638
			C586.389,219.134,589.979,222.22,591.625,222.071L591.625,222.071z"/>
	</g>
</g>
<g opacity="0.5">
	<g>
		<path fill="#9D9D9C" d="M598.062,225.798c-0.512,4.205-0.131,8.522,0.406,12.707c0.281,2.198,0.464,7.042,3.155,7.825
			c1.891,0.549,5.636-2.275,2.76-3.111c0.747,0.217-0.174-1.221-0.409-2.147c-0.408-1.606-0.622-3.267-0.832-4.907
			c-0.462-3.604-0.665-7.344-0.225-10.959C603.194,222.929,598.304,223.81,598.062,225.798L598.062,225.798z"/>
	</g>
</g>
<g opacity="0.5">
	<g>
		<path fill="#9D9D9C" d="M595.92,270.324c3.011-1.213,10.623-4.021,13.296-0.484c2.438,3.227-5.512,5.214-7.027,5.424
			c0.704,1.426,1.407,2.852,2.111,4.277c2.99-0.946,9.303-1.879,9.237,2.966c-0.046,3.429-3.633,6.148-6.43,7.433
			c-2.882,1.323-6.216,1.633-9.343,1.764c-0.825,0.034-7.565,0.084-7.721-1.243c-0.264-2.265-4.607-3.946-4.248-0.874
			c1.2,10.281,20.979,6.657,26.452,3.104c4.754-3.087,7.037-8.499,4.205-13.631c-2.905-5.266-9.801-5.256-14.747-3.691
			c-2.327,0.736,0.271,4.532,2.111,4.277c5.037-0.696,12.817-4.339,9.087-10.702c-4.049-6.905-13.414-5.277-19.578-2.793
			C590.943,267.111,593.81,271.174,595.92,270.324L595.92,270.324z"/>
	</g>
</g>
<g opacity="0.5">
	<g>
		<path fill="#9D9D9C" d="M638.899,221.65c15.306,2.313,30.505-0.654,45.837-0.792c1.84-0.017,4.08-2.64,1.882-3.897
			c-1.523-0.872-2.59-0.387-4.247-0.132c-2.887,0.444-2.727,4.43,0.473,3.938c1.356-0.197,1.616-0.241,0.78-0.132
			c0.627-1.299,1.255-2.598,1.882-3.897c-14.914,0.135-29.776,3.134-44.661,0.885C638.399,217.253,635.805,221.183,638.899,221.65
			L638.899,221.65z"/>
	</g>
</g>
<g opacity="0.5">
	<g>
		<path fill="#9D9D9C" d="M664.937,228.56c0.115-0.221,0.554-0.753,0.341-0.742c-1.404-0.312-2.81-0.625-4.214-0.938
			c0.538,0.269,0.587,7.35,0.793,8.452c0.771,4.141,2.969,5.957,7.056,6.678c0.095,0.017,2.228,0.239,1.83-0.185
			c-0.629-0.672-2.088-0.84-2.93-0.989c2,0.353,1.478,0.564,0.764-0.129c-0.355-0.346-0.609-0.79-0.851-1.217
			c-0.598-1.061-0.851-2.33-1.071-3.515c-0.384-2.059-0.437-4.167-0.562-6.252c-0.086-1.434-0.081-2.227-1.55-2.728
			c-1.625-0.555-3.575-1.267-4.486,0.478C659.914,227.744,664.452,229.486,664.937,228.56L664.937,228.56z"/>
	</g>
</g>
<g opacity="0.5">
	<g>
		<path fill="#9D9D9C" d="M663.583,261.587c1.344,6.897-6.903,13.439-10.614,18.462c-0.645,0.872-0.062,1.583,0.897,1.583
			c8.02-0.002,16.142,0.043,24.002-1.751c1.815-0.415,4.29-3.905,1.1-3.177c-7.496,1.711-15.276,1.599-22.924,1.602
			c0.3,0.527,0.599,1.055,0.897,1.583c4.027-5.449,12.659-12.46,11.173-20.084C667.726,257.811,663.266,259.957,663.583,261.587
			L663.583,261.587z"/>
	</g>
</g>
<g opacity="0.5">
	<g>
		<path fill="#9D9D9C" d="M675.815,267.763c1.562,7.532,1.899,15.246,4.19,22.625c0.191,0.616,2.56,4.165,3.449,3.16
			c1.391-1.572,2.399-3.163,3.351-5.028c0.688-1.35-3.034-4.352-3.369-3.694c-0.951,1.865-1.959,3.456-3.351,5.028
			c1.149,1.053,2.299,2.106,3.449,3.16c-2.292-7.378-2.63-15.093-4.19-22.625C679.102,269.219,675.503,266.255,675.815,267.763
			L675.815,267.763z"/>
	</g>
</g>
<g opacity="0.5">
	<g>
		<path fill="#9D9D9C" d="M540.783,278.959c2.875-1.877,11.202-6.769,12.184-0.456c0.98,6.313-7.382,11.139-12.021,13.107
			c-2.129,0.904-1.986,3.452,0.464,3.702c9.37,0.957,19.801,2.864,28.972-0.165c3.113-1.029,0.949-4.439-1.783-3.537
			c-8.202,2.709-17.941,0.692-26.333-0.165c0.154,1.234,0.309,2.468,0.464,3.702c6.719-2.851,17.312-9.581,14.942-18.493
			c-2.438-9.167-14.895-3.905-19.808-0.698C535.124,277.746,538.556,280.413,540.783,278.959L540.783,278.959z"/>
	</g>
</g>
</svg>
