<?xml version="1.0" encoding="utf-8"?>
<!-- Generator: Adobe Illustrator 22.0.1, SVG Export Plug-In . SVG Version: 6.00 Build 0)  -->
<svg version="1.1" id="Layer_1" xmlns="http://www.w3.org/2000/svg" xmlns:xlink="http://www.w3.org/1999/xlink" x="0px" y="0px"
	 viewBox="0 0 1024 756" style="enable-background:new 0 0 1024 756;" xml:space="preserve">
<style type="text/css">
	.st0{fill:none;stroke:#9D9D9C;stroke-miterlimit:10;}
	.st1{font-family:'Lato-Black';}
	.st2{font-size:72px;}
	.st3{font-family:'Lato-Light';}
	.st4{fill:#EB5B8C;stroke:#EB5B8C;stroke-miterlimit:10;}
	.st5{fill:#EB5B8C;}
	.st6{fill:#FFFFFF;}
	.st7{font-family:'Lato-Bold';}
	.st8{font-size:16.7224px;}
	.st9{font-size:16px;}
	.st10{font-family:'Lato-Regular';}
	.st11{opacity:0.5;fill:#EB5B8C;stroke:#EB5B8C;stroke-miterlimit:10;enable-background:new    ;}
	.st12{opacity:0.5;fill:#EB5B8C;enable-background:new    ;}
	.st13{fill:#9D9D9C;}
	.st14{fill:#B2B2B2;}
	.st15{font-size:14px;}
	.st16{fill:#C6C6C6;}
	.st17{fill:#1D1D1B;}
</style>
<line class="st0" x1="464.9" y1="-163.1" x2="464.9" y2="772.9"/>
<text transform="matrix(1 0 0 1 29 570.2988)" class="st1 st2">Timeline</text>
<text transform="matrix(1 0 0 1 25 501.7441)" class="st3 st2">CSS</text>
<circle class="st4" cx="461" cy="40.2" r="9.9"/>
<rect x="485.4" y="27.1" class="st5" width="129.2" height="26.2"/>
<text transform="matrix(1 0 0 1 496.9785 45.877)" class="st6 st7 st8">DEC 1996</text>
<text transform="matrix(1 0 0 1 630.3662 45.877)" class="st1 st9">CSS1</text>
<text transform="matrix(1 0 0 1 667.502 45.877)" class="st10 st9"> is officially recommended by W3C</text>
<circle class="st4" cx="461" cy="171.2" r="9.9"/>
<rect x="485.4" y="158.1" class="st5" width="129.2" height="26.2"/>
<text transform="matrix(1 0 0 1 496.9785 176.877)" class="st6 st7 st8">NOV 2000</text>
<text transform="matrix(1 0 0 1 630.3662 176.877)" class="st1 st9">CSS2</text>
<text transform="matrix(1 0 0 1 667.502 176.877)" class="st10 st9"> becomes official W3C  recommendation</text>
<circle class="st4" cx="464.9" cy="278.7" r="9.9"/>
<rect x="489.3" y="265.6" class="st5" width="129.2" height="26.2"/>
<text transform="matrix(1 0 0 1 500.9386 284.353)" class="st6 st7 st8">JUN 2011</text>
<text transform="matrix(1 0 0 1 634.3263 284.353)" class="st1 st9">CSS2.1</text>
<text transform="matrix(1 0 0 1 684.5167 284.353)" class="st10 st9">   specification recommended by W3C</text>
<text transform="matrix(1 0 0 1 946.0333 284.353)" class="st10 st9"> </text>
<circle class="st4" cx="464.9" cy="409.7" r="9.9"/>
<circle class="st4" cx="464.9" cy="408.7" r="9.9"/>
<rect x="489.3" y="394.6" class="st5" width="129.2" height="26.2"/>
<text transform="matrix(1 0 0 1 500.9386 413.353)" class="st6 st7 st8">SEP 2011</text>
<text transform="matrix(1 0 0 1 634.3263 413.353)" class="st1 st9">CSS3</text>
<text transform="matrix(1 0 0 1 671.4621 413.353)" class="st10 st9">  specification recommended by W3C</text>
<text transform="matrix(1 0 0 1 929.8898 413.353)" class="st10 st9"> </text>
<circle class="st4" cx="464.9" cy="528.7" r="9.9"/>
<rect x="489.3" y="516.6" class="st5" width="129.2" height="26.2"/>
<text transform="matrix(1 0 0 1 500.9386 535.353)" class="st6 st7 st8">MAY 2011</text>
<text transform="matrix(1 0 0 1 634.3263 535.353)" class="st10 st9">Cascading Style Sheets (CSS)</text>
<text transform="matrix(1 0 0 1 834.9953 535.353)" class="st1 st9"> Snapshot 2007</text>
<circle class="st4" cx="464.9" cy="574.7" r="9.9"/>
<rect x="489.3" y="561.6" class="st5" width="129.2" height="26.2"/>
<text transform="matrix(1 0 0 1 500.9386 580.353)" class="st6 st7 st8">MAY 2011</text>
<text transform="matrix(1 0 0 1 634.3263 580.353)" class="st10 st9">Cascading Style Sheets (CSS)</text>
<text transform="matrix(1 0 0 1 834.9953 580.353)" class="st1 st9"> Snapshot 2010</text>
<circle class="st4" cx="464.9" cy="617.9" r="9.9"/>
<rect x="489.3" y="604.8" class="st5" width="129.2" height="26.2"/>
<text transform="matrix(1 0 0 1 500.9386 623.5619)" class="st6 st7 st8">OCT 2015</text>
<text transform="matrix(1 0 0 1 634.3263 623.5619)" class="st10 st9">Cascading Style Sheets (CSS)</text>
<text transform="matrix(1 0 0 1 834.9953 623.5619)" class="st1 st9"> Snapshot 2015</text>
<circle class="st11" cx="461" cy="92.9" r="9.9"/>
<rect x="310.7" y="79.8" class="st12" width="129.2" height="26.2"/>
<text transform="matrix(1 0 0 1 350.9277 98.585)" class="st6 st7 st8">APR 2008</text>
<path class="st13" d="M555.9,65c-4.9,13.8-17.6,22.1-32,23.7c-2,0.2-22,1.1-21-1.3c-0.2,0.5-3.5,1.4-4.1,2.6
	c-1.1,2.4,8.5,2.1,9.6,2.1c6.7,0,13.4-0.5,19.9-2.4c13.6-4.1,26.7-13.6,31.6-27.3C559.8,62.9,556.3,63.8,555.9,65L555.9,65z"/>
<path class="st13" d="M506,84.6c-4.5,1.3-8.2,4-12,6.5c-0.6,0.4-0.8,1.2-0.1,1.6c6.3,3.9,13.5,4.1,20.4,6.2c1.6,0.5,5.9-1.6,3.1-2.5
	c-6.5-2-13.6-2.1-19.6-5.8c0,0.5-0.1,1.1-0.1,1.6c3.2-2.1,6.3-4.4,10-5.5C511,85.9,508.3,83.9,506,84.6L506,84.6z"/>
<text transform="matrix(1 0 0 1 549.9893 91.7451)" class="st14 st10 st15">revised</text>
<circle class="st11" cx="461" cy="223.9" r="9.9"/>
<rect x="310.7" y="210.8" class="st12" width="129.2" height="26.2"/>
<text transform="matrix(1 0 0 1 350.9277 229.585)" class="st6 st7 st8">NOV 2011</text>
<path class="st13" d="M555.9,198c-4.9,13.8-17.6,22.1-32,23.7c-2,0.2-22,1.1-21-1.3c-0.2,0.5-3.5,1.4-4.1,2.6
	c-1.1,2.4,8.5,2.1,9.6,2.1c6.7,0,13.4-0.5,19.9-2.4c13.6-4.1,26.7-13.6,31.6-27.3C559.8,195.9,556.3,196.8,555.9,198L555.9,198z"/>
<path class="st13" d="M506,217.6c-4.5,1.3-8.2,4-12,6.5c-0.6,0.4-0.8,1.2-0.1,1.6c6.3,3.9,13.5,4.1,20.4,6.2
	c1.6,0.5,5.9-1.6,3.1-2.5c-6.5-2-13.6-2.1-19.6-5.8c0,0.5-0.1,1.1-0.1,1.6c3.2-2.1,6.3-4.4,10-5.5C511,218.9,508.3,216.9,506,217.6
	L506,217.6z"/>
<text transform="matrix(1 0 0 1 549.9893 224.7451)" class="st14 st10 st15">revised</text>
<circle class="st11" cx="464.9" cy="331.7" r="9.9"/>
<rect x="314.7" y="318.6" class="st12" width="129.2" height="26.2"/>
<text transform="matrix(1 0 0 1 354.8878 337.3764)" class="st6 st7 st8">DEC 2014</text>
<path class="st13" d="M559.8,305.8c-4.9,13.8-17.6,22.1-32,23.7c-2,0.2-22,1.1-21-1.3c-0.2,0.5-3.5,1.4-4.1,2.6
	c-1.1,2.4,8.5,2.1,9.6,2.1c6.7,0,13.4-0.5,19.9-2.4c13.6-4.1,26.7-13.6,31.6-27.3C563.7,303.7,560.3,304.6,559.8,305.8L559.8,305.8z
	"/>
<path class="st13" d="M510,325.4c-4.5,1.3-8.2,4-12,6.5c-0.6,0.4-0.8,1.2-0.1,1.6c6.3,3.9,13.5,4.1,20.4,6.2
	c1.6,0.5,5.9-1.6,3.1-2.5c-6.5-2-13.6-2.1-19.6-5.8c0,0.5-0.1,1.1-0.1,1.6c3.2-2.1,6.3-4.4,10-5.5C515,326.7,512.3,324.7,510,325.4
	L510,325.4z"/>
<text transform="matrix(1 0 0 1 553.9494 332.5365)" class="st14 st10 st15">edited in place to point new work</text>
<path class="st16" d="M658.7,264.1c-9.5-1-19.7-2.3-29.1,0.2c-7.7,2-17.8,7.7-18.6,16.6c-0.7,8.4,9.8,13.7,16.2,16
	c6.5,2.4,13.4,2.8,20.2,2.3c12.9-1,28.3-3.6,38.3-12.3c4.3-3.7,6.4-8.7,5.3-14.4c-1.4-6.9-9.7-11.9-16.4-12.4
	c-2.1-0.2-4.9,3-1.6,3.2c6.2,0.5,12.2,5.6,13.4,11.5c1,4.9-2,9.1-5.7,11.9c-8.5,6.4-20.9,8.3-31.2,9.2c-11.2,1-27.6-1.1-33-12.5
	c-4.3-9,9.3-15.5,16-16.7c8-1.4,16.5-0.2,24.5,0.6C659.2,267.5,661.9,264.4,658.7,264.1L658.7,264.1z"/>
<path class="st16" d="M703.6,268.7c17.3-3.4,34.9-5.8,52-10c3.1-0.8-1.5-1.3-2.6-1c-17.1,4.2-34.7,6.6-52,10
	C697.9,268.4,702.5,269,703.6,268.7L703.6,268.7z"/>
<text transform="matrix(1 0 0 1 766.2771 259.025)" class="st13 st10 st15">Level 2  Revision 1</text>
<text transform="matrix(1 0 0 1 41 596.9531)" class="st13 st10 st15">Source: http://www.w3.org/TR/#tr_CSS</text>
<text transform="matrix(1 0 0 1 610.4162 447.3696)" class="st13 st10 st15">Selectors Level 3, first module becoming recommendation  </text>
<text transform="matrix(1 0 0 1 489.3263 497.6576)" class="st17 st10 st15">There is not</text>
<text transform="matrix(1 0 0 1 561.5372 497.6576)" class="st17 st1 st15"> CSS4</text>
<text transform="matrix(1 0 0 1 596.7326 497.6576)" class="st17 st10 st15">. Each module works independently and has its own level </text>
<text transform="matrix(1 0 0 1 723.8507 375.5824)" class="st13 st10 st15">builds on CSS Level 2 module by module, </text>
<text transform="matrix(1 0 0 1 723.8507 392.3813)" class="st13 st10 st15">using the CSS2.1 specification as its core</text>
<path class="st16" d="M651.1,392.1c-11.5-5.6-27.3,1.7-25.6,16.1c1.5,12,13.6,21.5,25.5,21.2c10.2-0.2,19.8-7.1,25.1-15.5
	c4.6-7.2,4.4-15.9-4-19.8c-3-1.4-2.7,2-0.4,3c6,2.7,2.4,10.7-0.1,14.7c-4,6.2-10.5,11-17.5,13.1c-9.6,2.8-18.9-2.1-23-11.1
	c-5.5-12.1,8.3-24.2,19.7-18.7C653.6,396.6,653.3,393.2,651.1,392.1L651.1,392.1z"/>
<path class="st16" d="M682.2,396c5.9-3.2,12.7-5.1,19-7.2c3.7-1.2,7.4-2.3,11.1-3.3c1.3-0.3,2.6-0.7,3.8-1c1.7-0.4,2.7,0.2,0.9-0.7
	c1.9,0.9,6.1-1.2,3.4-2.6c-1.8-0.9-4-0.2-5.9,0.2c-4,0.9-7.9,2-11.7,3.2c-7.8,2.4-16.3,4.6-23.5,8.6
	C676.6,394.9,680.1,397.1,682.2,396L682.2,396z"/>
<path class="st13" d="M534.8,435.1c10.7,0.2,20,6.3,30,9.5c9.1,2.9,18.3,3.6,27.5,0.7c1.3-0.4-3-1.9-4.1-1.6
	c-11.6,3.7-21.4,0.3-32.2-4.2c-7.5-3.2-15.2-5.9-23.4-6.1C529.4,433.4,533.6,435.1,534.8,435.1L534.8,435.1z"/>
<path class="st13" d="M582.8,436.9c2.1,0.1,4.2,1.7,5.9,2.8c2.7,1.7,5.4,3.4,8.4,4.4c0.1-0.3,0.3-0.5,0.4-0.8c-3,2.1-6,4.3-9.5,5.7
	c-3.2,1.3-0.1,1.5,1.6,0.8c4.1-1.7,7.8-4.1,11.5-6.7c0.1-0.1,0.9-0.6,0.4-0.8c-3-1-5.7-2.7-8.4-4.4c-1.9-1.2-4.1-2.8-6.5-2.9
	c-1.1,0-2.3,0.3-3.3,0.8C583.1,435.9,581.6,436.9,582.8,436.9L582.8,436.9z"/>
<circle class="st4" cx="465.9" cy="661.1" r="9.9"/>
<rect x="490.3" y="648" class="st5" width="129.2" height="26.2"/>
<text transform="matrix(1 0 0 1 501.8992 666.7709)" class="st6 st7 st8">JAN 2017</text>
<text transform="matrix(1 0 0 1 635.2869 666.7709)" class="st10 st9">Cascading Style Sheets (CSS)</text>
<text transform="matrix(1 0 0 1 835.9559 666.7709)" class="st1 st9"> Snapshot 2017</text>
<g>
	<circle class="st4" cx="465.9" cy="703.1" r="9.9"/>
	<rect x="490.3" y="690" class="st5" width="129.2" height="26.2"/>
	<text transform="matrix(1 0 0 1 501.8992 708.7709)" class="st6 st7 st8">JAN 2019</text>
	<text transform="matrix(1 0 0 1 635.2869 708.7709)" class="st10 st9">Cascading Style Sheets (CSS)</text>
	<text transform="matrix(1 0 0 1 835.9559 708.7709)" class="st1 st9"> Snapshot 2018</text>
</g>
</svg>
