<svg xmlns="http://www.w3.org/2000/svg" width="1024px" height="756px">
    <text transform="matrix(1 0 0 1 4 130.0239)" font-family="'Lato-Black'" font-size="72">Selector</text>
    <text transform="matrix(1 0 0 1 0 61.4697)" font-family="'Lato-Light'" font-size="72">CSS</text>
    <rect x="328.934" y="204.21" fill="#EB5B8C" width="173.044" height="35.077" />
    <rect x="354.354" y="329.458" fill="none" width="696.9" height="475.299" />
    <text transform="matrix(1 0 0 1 354.3535 353.1411)">
        <tspan x="0" y="0" fill="#1D1D1B" font-family="'Lato-Regular'" font-size="32.1329">body {</tspan>
        <tspan x="0" y="48" fill="#1D1D1B" font-family="'Lato-Regular'" font-size="32.1329"> font-family: Arial, sans-serif;</tspan>
        <tspan x="0" y="96" fill="#1D1D1B" font-family="'Lato-Regular'" font-size="32.1329"> color: #333;</tspan>
        <tspan x="0" y="143.999" fill="#1D1D1B" font-family="'Lato-Regular'" font-size="32.1329"> margin: 0;</tspan>
        <tspan x="0" y="191.999" fill="#1D1D1B" font-family="'Lato-Regular'" font-size="32.1329">}</tspan>
    </text>
    <text transform="matrix(1 0 0 1 364.3823 231.249)" fill="#FFFFFF" font-family="'Lato-Regular'" font-size="28.1163">Selector</text>
    <g>
        <g>
            <path fill="#9D9D9C" d="M363.302,608.681c-0.824,0-3.135-1.475-4.593-1.475C359.533,607.207,361.844,608.681,363.302,608.681
			L363.302,608.681z" />
        </g>
    </g>
    <g>
        <g>
            <path fill="#C6C6C6" d="M426.787,318.665c-13.593-4.148-27.116-8.48-41.031-11.448c-14.085-3.004-29.889-5.347-43.935-0.955
			c-14.029,4.387-19.592,16.967-19.433,30.865c0.167,14.597,6.982,26.293,19.111,34.246c16.563,10.86,38.24,12.916,57.389,9.619
			c14.275-2.457,34.872-10.176,35.158-27.54c0.021-1.249-4.146-3.301-4.16-2.465c-0.206,12.474-11.958,19.873-22.442,23.711
			c-14.02,5.132-29.896,5.771-44.491,3.109c-14.683-2.679-29.229-9.92-34.398-24.83c-4.648-13.405-2.724-31.817,9.769-40.26
			c12.824-8.667,31.554-5.98,45.783-3.387c15.326,2.793,30.137,7.641,45.005,12.178
			C431.362,322.196,427.709,318.946,426.787,318.665L426.787,318.665z" />
        </g>
    </g>
    <g>
        <g>
            <path fill="#C6C6C6" d="M407.322,298.628c4.216-8.625,7.034-18.025,10.147-27.083c1.695-4.931,3.373-9.869,5.134-14.777
			c0.597-1.664,1.207-3.325,1.874-4.961c0.238-0.583,0.496-1.157,0.77-1.724c0.821-1.699,0.328,0.591-1.728-0.344
			c2.987,1.359,3.411-2.727,0.825-3.903c-4.588-2.088-8.525,15.342-9.345,17.719c-3.731,10.816-6.91,22.165-11.946,32.469
			C401.912,298.36,406.195,300.934,407.322,298.628L407.322,298.628z" />
        </g>
    </g>
</svg>
