<svg xmlns="http://www.w3.org/2000/svg" width="1024px" height="756px">
    <text transform="matrix(1 0 0 1 4 130.0239)" font-family="'Lato-Black'" font-size="72">Terms</text>
    <text transform="matrix(1 0 0 1 0 61.4697)" font-family="'Lato-Light'" font-size="72">CSS</text>
    <rect x="4.446" y="354.028" fill="#EB5B8C" width="107.813" height="26.199" />
    <rect x="445.067" y="361.326" fill="#EB5B8C" width="129.246" height="26.199" />
    <rect x="587.937" y="543.278" fill="#EB5B8C" width="129.246" height="26.199" />
    <rect x="728.632" y="543.278" fill="#EB5B8C" width="129.246" height="26.199" />
    <rect x="587.937" y="149.377" fill="#EB5B8C" width="129.246" height="26.199" />
    <rect x="186.1" y="353.471" fill="#EB5B8C" width="178.27" height="26.199" />
    <rect x="606.923" y="242.925" fill="none" width="520.514" height="355" />
    <text transform="matrix(1 0 0 1 606.9229 260.6133)">
        <tspan x="0" y="0" fill="#1D1D1B" font-family="'Lato-Regular'" font-size="24">body {</tspan>
        <tspan x="0" y="60" fill="#1D1D1B" font-family="'Lato-Regular'" font-size="24"> font-family: Arial, sans-serif;</tspan>
        <tspan x="0" y="120" fill="#1D1D1B" font-family="'Lato-Regular'" font-size="24"> color: #333;</tspan>
        <tspan x="0" y="180" fill="#1D1D1B" font-family="'Lato-Regular'" font-size="24"> margin: 0;</tspan>
        <tspan x="0" y="240" fill="#1D1D1B" font-family="'Lato-Regular'" font-size="24">}</tspan>
    </text>
    <text transform="matrix(1 0 0 1 20.5537 374.2231)" fill="#FFFFFF" font-family="'Lato-Regular'" font-size="21">Rule Set</text>
    <text transform="matrix(1 0 0 1 192.4795 373.5708)" fill="#FFFFFF" font-family="'Lato-Regular'" font-size="21">Declaration Block</text>
    <text transform="matrix(1 0 0 1 457.3135 381.4253)" fill="#FFFFFF" font-family="'Lato-Regular'" font-size="21">Declaration </text>
    <text transform="matrix(1 0 0 1 611.2529 563.4731)" fill="#FFFFFF" font-family="'Lato-Regular'" font-size="21">Property</text>
    <text transform="matrix(1 0 0 1 767.3721 563.4731)" fill="#FFFFFF" font-family="'Lato-Regular'" font-size="21">Value</text>
    <text transform="matrix(1 0 0 1 614.4131 169.5728)" fill="#FFFFFF" font-family="'Lato-Regular'" font-size="21">Selector</text>
    <g>
        <g>
            <path fill="#C6C6C6" d="M613.793,351.555c-3.15-1.202-6.463-1.164-9.797-1.171c-0.23,0.037-0.385,0.166-0.462,0.387
			c-1.923,14.427-1.074,28.905-0.046,43.367c0.102,1.429,1.636,3.316,3.143,3.328c6.213,0.051,12.434,0.541,18.63,0.981
			c2.161,0.153-0.448-3.942-1.895-4.045c-6.44-0.457-12.911-0.966-19.37-1.019c1.048,1.109,2.095,2.219,3.143,3.328
			c-0.576-8.105-1.091-16.208-1.154-24.337c-0.029-3.764,0.12-7.523,0.367-11.278c0.063-0.967,0.2-6.631,1.617-6.628
			c2.282,0.006,4.698,0,6.865,0.826C617.407,356.277,615.146,352.071,613.793,351.555L613.793,351.555z" />
        </g>
    </g>
    <g>
        <g>
            <path fill="#C6C6C6" d="M599.345,374.672c-6.015,0.053-11.991,0.917-18,1c-1.108,0.016-2.302,0.418-3.329,0.799
			c-0.184,0.067-1.736,0.721-0.733,0.707c6.009-0.083,11.986-0.947,18-1c1.105-0.01,2.306-0.419,3.329-0.799
			C598.797,375.311,600.347,374.664,599.345,374.672L599.345,374.672z" />
        </g>
    </g>
    <g>
        <g>
            <path fill="#C6C6C6" d="M426.25,275.299c-12.036,0.055-24.018,1.055-36,2.105c-0.366,0.032-1.258,0.065-1.348,0.581
			c-5.165,29.432,0.867,59.158,1.955,88.668c0.583,15.831-0.766,31.771-1.517,47.581c-0.758,15.971-1.412,31.946-1.438,47.937
			c-0.002,1.253,2.803,1.381,3.587,1.379c6.891-0.008,13.622-0.322,19.938-3.336c1.554-0.742-2.982-2.14-4.115-1.6
			c-5.754,2.746-11.804,2.969-18.062,2.976c1.196,0.46,2.392,0.92,3.587,1.38c0.053-31.242,3.688-62.518,3.008-93.736
			c-0.657-30.174-7.29-60.348-2.008-90.45c-0.449,0.194-0.898,0.388-1.348,0.581c11.982-1.051,23.964-2.051,36-2.105
			C431.698,277.245,427.638,275.293,426.25,275.299L426.25,275.299z" />
        </g>
    </g>
    <g>
        <g>
            <path fill="#C6C6C6" d="M390.382,364.986c-7.771,0.002-15.547,0.038-23.263,1.054c-3.128,0.412,1.437,1.202,2.502,1.062
			c6.883-0.906,13.806-0.944,20.737-0.946C393.231,366.156,393.272,364.985,390.382,364.986L390.382,364.986z" />
        </g>
    </g>
    <g>
        <g>
            <path fill="#C6C6C6" d="M170.533,221.558c-7.689,0.002-15.353,0.115-23,1c-1.091,0.126-2.608,0.717-2.872,1.957
			c-11.115,52.103-2.036,105.53-0.302,158.077c0.795,24.079-1.708,47.839-3.681,71.799c-1.857,22.55-3.342,45.857,2.024,68.055
			c0.156,0.645,1.19,0.909,1.735,0.849c6.285-0.699,12.634-0.476,18.935-0.973c2.742-0.216,8.16-0.531,8.937-3.984
			c0.612-2.721-4.177-1.92-4.648,0.178c0.735-0.582,0.688-0.702-0.14-0.359c-0.993,0.26-2.036,0.331-3.053,0.431
			c-1.965,0.192-3.945,0.249-5.917,0.322c-4.341,0.162-8.696,0.17-13.018,0.649c0.579,0.283,1.157,0.566,1.735,0.849
			c-5.281-21.846-3.601-44.971-1.814-67.148c1.881-23.363,4.351-46.512,3.734-69.987c-1.388-52.852-11.06-106.518,0.122-158.934
			c-0.958,0.652-1.915,1.304-2.872,1.957c7.647-0.884,15.31-0.998,23-1C171.848,225.292,173.815,221.557,170.533,221.558
			L170.533,221.558z" />
        </g>
    </g>
    <g>
        <g>
            <path fill="#C6C6C6" d="M139.204,361.298c-5.44,0.001-11.075-0.205-16.412,1.001c-2,0.452,0.631,4.648,2.387,4.252
			c5.07-1.146,10.42-0.998,15.588-0.999C143.243,365.552,140.909,361.297,139.204,361.298L139.204,361.298z" />
        </g>
    </g>
    <g>
        <g>
            <path fill="#C6C6C6" d="M712.042,409.554c-9.307,1.91-12.447,11.755-14.658,19.938c-2.097,7.755-0.489,15.976,4.8,22.047
			c9.68,11.112,31.586,14.013,44.133,6.467c9.799-5.893,11.256-18.04,7.137-27.863c-5.347-12.749-19.196-18.591-32.241-18.754
			c-2.593-0.032-1.049,4.713,1.322,4.742c10.504,0.131,21.216,4.207,26.605,13.709c4.184,7.374,3.25,16.513-3.121,22.262
			c-9.157,8.261-26.089,5.685-35.961,0.588c-6.803-3.513-10.095-10.052-9.39-17.562c0.368-3.925,2.024-7.397,3.299-11.061
			c1.635-4.702,4.254-8.715,9.397-9.771C715.998,413.755,714.372,409.076,712.042,409.554L712.042,409.554z" />
        </g>
    </g>
    <g>
        <g>
            <path fill="#C6C6C6" d="M745.56,473.126c-0.743,3.077,4.266,8.726,5.734,11.008c4.968,7.717,10.182,15.278,15.409,22.82
			c5.068,7.312,10.193,14.588,15.409,21.796c2.041,2.821,4.903,8.734,8.394,10.11c3.056,1.205,3.425-2.824,0.77-3.871
			c0.961,0.379,1.287,0.951,0.727,0.267c-0.561-0.687-1.094-1.397-1.629-2.104c-1.64-2.166-3.233-4.367-4.826-6.568
			c-4.871-6.732-9.65-13.533-14.393-20.357c-4.847-6.974-9.646-13.982-14.312-21.08c-1.613-2.453-3.203-4.922-4.729-7.431
			c-0.497-0.817-0.995-1.641-1.439-2.488c-0.415-0.791-0.239-1.382-0.452-0.503C750.8,472.333,746.202,470.464,745.56,473.126
			L745.56,473.126z" />
        </g>
    </g>
    <g>
        <g>
            <path fill="#9D9D9C" d="M614.188,451.663c-0.824,0-3.136-1.475-4.594-1.475C610.418,450.188,612.729,451.663,614.188,451.663
			L614.188,451.663z" />
        </g>
    </g>
    <g>
        <g>
            <path fill="#C6C6C6" d="M612.377,451.423c26.411-0.057,52.771-2,79.188-2c2.509,0,4.374-2.996,1.027-2.996
			c-0.729,0-1.458,0-2.188,0c-2.509,0-4.374,2.996-1.027,2.996c0.729,0,1.458,0,2.188,0c2.509,0,4.374-2.996,1.027-2.996
			c-26.417,0-52.776,1.943-79.188,2C610.897,448.432,609.03,451.43,612.377,451.423L612.377,451.423z" />
        </g>
    </g>
    <g>
        <g>
            <path fill="#C6C6C6" d="M658.392,456.864c-4.55,14.518-10.982,28.533-16.375,42.75c-3.002,7.915-5.958,15.875-8.345,24.001
			c-0.611,2.082-3.592,9.544-1.194,11.372c1.068,0.814,4.732-0.194,4.826-0.123c-2.254-1.719,1.021-9.947,1.589-11.883
			c2.312-7.871,5.225-15.575,8.122-23.244c5.375-14.227,11.824-28.23,16.375-42.75C663.466,456.744,658.705,455.864,658.392,456.864
			L658.392,456.864z" />
        </g>
    </g>
    <g>
        <g>
            <path fill="#C6C6C6" d="M660.729,234.503c-13.959-4.264-27.91-8.826-42.476-10.507c-12.43-1.435-28.477-0.626-33.967,12.753
			c-5.564,13.559,0.34,28.516,11.613,36.735c11.428,8.333,26.758,10.366,40.503,8.932c11.723-1.223,30.248-6.712,30.568-21.258
			c0.027-1.245-4.142-3.308-4.16-2.465c-0.294,13.347-16.723,18.593-27.492,20.3c-14.005,2.22-33.393,0.763-43.148-10.92
			c-9.187-11.001-7.732-32.317,6.062-38.793c13.434-6.307,31.325-1.476,44.847,2.107c6.719,1.78,13.329,3.931,19.975,5.96
			C665.304,238.035,661.65,234.785,660.729,234.503L660.729,234.503z" />
        </g>
    </g>
    <g>
        <g>
            <path fill="#C6C6C6" d="M647.024,220.228c3.046-6.278,5.125-13.078,7.391-19.661c1.268-3.682,2.521-7.368,3.824-11.036
			c0.493-1.387,1.753-5.552,2.364-5.929c-0.733,0.084-1.467,0.169-2.2,0.253c0.024,0.007,0.05,0.015,0.074,0.022
			c3.124,0.932,3.619-3.07,0.826-3.903c-4.432-1.322-6.455,10-7.361,12.618c-2.887,8.338-5.326,17.075-9.186,25.031
			C641.622,219.962,645.905,222.535,647.024,220.228L647.024,220.228z" />
        </g>
    </g>
    <g>
        <g>
            <line fill="none" stroke="#C6C6C6" stroke-miterlimit="10" x1="196.891" y1="224.901" x2="199.891" y2="224.901" />
            <line fill="none" stroke="#C6C6C6" stroke-miterlimit="10" stroke-dasharray="6.0413,6.0413" x1="205.932" y1="224.901" x2="927.87" y2="224.901" />
            <line fill="none" stroke="#C6C6C6" stroke-miterlimit="10" x1="930.891" y1="224.901" x2="933.891" y2="224.901" />
        </g>
    </g>
    <g>
        <g>
            <line fill="none" stroke="#C6C6C6" stroke-miterlimit="10" x1="438.891" y1="276.901" x2="441.891" y2="276.901" />
            <line fill="none" stroke="#C6C6C6" stroke-miterlimit="10" stroke-dasharray="6.037,6.037" x1="447.928" y1="276.901" x2="927.872" y2="276.901" />
            <line fill="none" stroke="#C6C6C6" stroke-miterlimit="10" x1="930.891" y1="276.901" x2="933.891" y2="276.901" />
        </g>
    </g>
    <g>
        <g>
            <line fill="none" stroke="#C6C6C6" stroke-miterlimit="10" x1="635.126" y1="354.901" x2="638.126" y2="354.901" />
            <line fill="none" stroke="#C6C6C6" stroke-miterlimit="10" stroke-dasharray="5.9748,5.9748" x1="644.101" y1="354.901" x2="927.903" y2="354.901" />
            <line fill="none" stroke="#C6C6C6" stroke-miterlimit="10" x1="930.891" y1="354.901" x2="933.891" y2="354.901" />
        </g>
    </g>
    <g>
        <g>
            <line fill="none" stroke="#C6C6C6" stroke-miterlimit="10" x1="635.126" y1="397.901" x2="638.126" y2="397.901" />
            <line fill="none" stroke="#C6C6C6" stroke-miterlimit="10" stroke-dasharray="5.9748,5.9748" x1="644.101" y1="397.901" x2="927.903" y2="397.901" />
            <line fill="none" stroke="#C6C6C6" stroke-miterlimit="10" x1="930.891" y1="397.901" x2="933.891" y2="397.901" />
        </g>
    </g>
    <g>
        <g>
            <line fill="none" stroke="#C6C6C6" stroke-miterlimit="10" x1="438.891" y1="460.901" x2="441.891" y2="460.901" />
            <line fill="none" stroke="#C6C6C6" stroke-miterlimit="10" stroke-dasharray="6.037,6.037" x1="447.928" y1="460.901" x2="927.872" y2="460.901" />
            <line fill="none" stroke="#C6C6C6" stroke-miterlimit="10" x1="930.891" y1="460.901" x2="933.891" y2="460.901" />
        </g>
    </g>
    <g>
        <g>
            <line fill="none" stroke="#C6C6C6" stroke-miterlimit="10" x1="196.891" y1="523.901" x2="199.891" y2="523.901" />
            <line fill="none" stroke="#C6C6C6" stroke-miterlimit="10" stroke-dasharray="6.0413,6.0413" x1="205.932" y1="523.901" x2="927.87" y2="523.901" />
            <line fill="none" stroke="#C6C6C6" stroke-miterlimit="10" x1="930.891" y1="523.901" x2="933.891" y2="523.901" />
        </g>
    </g>
</svg>
